<?xml version="1.0" encoding="UTF-8" standalone="no"?>
<!DOCTYPE svg PUBLIC "-//W3C//DTD SVG 1.1//EN" "http://www.w3.org/Graphics/SVG/1.1/DTD/svg11.dtd">
<svg width="100%" height="100%" viewBox="0 0 7084 4725" version="1.1" xmlns="http://www.w3.org/2000/svg" xmlns:xlink="http://www.w3.org/1999/xlink" xml:space="preserve" xmlns:serif="http://www.serif.com/" style="fill-rule:evenodd;clip-rule:evenodd;stroke-linecap:round;stroke-linejoin:round;stroke-miterlimit:1.5;">
    <g id="Artboard1" transform="matrix(1,0,0,1,409.112,-413.058)">
        <rect x="-409.112" y="413.058" width="7083.11" height="4724.38" style="fill:none;"/>
        <g transform="matrix(1,0,0,1,-409.112,413.058)">
            <path d="M1179.56,3956.08L1191.16,2610.06C1191.16,2610.06 2705.45,322.247 2711.26,300C2717.06,277.753 4167.53,2563.66 4167.53,2563.66L4196.52,3706.62L4063.05,3747.21L4080.48,2911.77C4080.48,2911.77 4034.07,2540.46 3627.94,2552.06C3221.81,2563.66 3146.37,2975.59 3134.79,2975.59C3123.21,2975.59 3129.01,3683.41 3129.01,3683.41L3059.39,3712.42L3070.94,3840.04L3065.16,3915.49L1440.66,3863.27L1179.56,3956.08ZM1632.1,3370.12L1498.65,3370.12L1411.63,3474.53L1405.85,2807.34L1400.02,2702.89L1347.81,2644.87L1864.17,2203.95L2484.98,2203.95L3041.96,2621.68L2960.76,2679.7L2949.13,3520.96L2809.89,3520.96L2763.47,3462.94L2688.04,3428.11L2624.2,3370.12L2548.8,3312.1L2397.96,3341.11L2238.42,3341.11L2044.05,3370.12L1910.61,3370.12L1782.97,3341.11L1632.1,3370.12Z" style="fill:none;stroke:black;stroke-width:1px;"/>
        </g>
    </g>
</svg>
