<?xml version="1.0" encoding="UTF-8" standalone="no"?>
<!DOCTYPE svg PUBLIC "-//W3C//DTD SVG 1.1//EN" "http://www.w3.org/Graphics/SVG/1.1/DTD/svg11.dtd">
<svg width="100%" height="100%" viewBox="0 0 7084 4725" version="1.1" xmlns="http://www.w3.org/2000/svg" xmlns:xlink="http://www.w3.org/1999/xlink" xml:space="preserve" xmlns:serif="http://www.serif.com/" style="fill-rule:evenodd;clip-rule:evenodd;stroke-linecap:round;stroke-linejoin:round;stroke-miterlimit:1.5;">
    <g id="Artboard1" transform="matrix(1,0,0,1,409.112,-413.058)">
        <rect x="-409.112" y="413.058" width="7083.11" height="4724.38" style="fill:none;"/>
        <g transform="matrix(1,0,0,1,-409.112,413.058)">
            <path d="M2785.64,2424.31L2484.98,2203.95L1864.17,2203.95L1347.81,2644.87L1400.02,2702.89L1405.85,2807.34L1411.31,3437.64L1347.81,3520.96L1347.81,3793.65L1383.2,3883.69L1179.56,3956.08L1191.16,2610.06C1191.16,2610.06 2705.45,322.247 2711.26,300C2717.06,277.753 4167.53,2563.66 4167.53,2563.66L4196.52,3706.62L4063.05,3747.21L4080.48,2911.77C4080.48,2911.77 4034.07,2540.46 3627.94,2552.06C3221.81,2563.66 3146.37,2975.59 3134.79,2975.59C3123.21,2975.59 3129.01,3683.41 3129.01,3683.41L3059.39,3712.42L3070.94,3840.04L3065.16,3915.49L2878.12,3909.47L2891.09,3793.65L2867.28,3520.96L2949.13,3520.96L2960.76,2679.7L3041.96,2621.68L2771.05,2418.5L2785.64,2424.31ZM3088.39,2127.96L3105.76,1461.3L2316.75,1462.74L2305.13,1449.72L2310.93,2093.72L3068.54,2106.32L3088.39,2127.96ZM2775.08,1293.07L2757.67,869.537L2635.83,869.537L2630.05,1287.27L2775.08,1293.07Z" style="fill:none;stroke:black;stroke-width:1px;"/>
        </g>
    </g>
</svg>
