<?xml version="1.0" encoding="UTF-8" standalone="no"?>
<!DOCTYPE svg PUBLIC "-//W3C//DTD SVG 1.1//EN" "http://www.w3.org/Graphics/SVG/1.1/DTD/svg11.dtd">
<svg width="100%" height="100%" viewBox="0 0 7084 4725" version="1.1" xmlns="http://www.w3.org/2000/svg" xmlns:xlink="http://www.w3.org/1999/xlink" xml:space="preserve" xmlns:serif="http://www.serif.com/" style="fill-rule:evenodd;clip-rule:evenodd;stroke-linecap:round;stroke-linejoin:round;stroke-miterlimit:1.5;">
    <g id="Artboard1" transform="matrix(1,0,0,1,409.112,-413.058)">
        <rect x="-409.112" y="413.058" width="7083.11" height="4724.38" style="fill:none;"/>
        <g transform="matrix(1,0,0,1,-409.112,413.058)">
            <path d="M1383.2,3883.69L1179.56,3956.08L1191.16,2610.06C1191.16,2610.06 2705.45,322.247 2711.26,300C2717.06,277.753 4167.53,2563.66 4167.53,2563.66L4196.52,3706.62L4063.05,3747.21L4080.48,2911.77C4080.48,2911.77 4034.07,2540.46 3627.94,2552.06C3221.81,2563.66 3146.37,2975.59 3134.79,2975.59C3123.21,2975.59 3129.01,3683.41 3129.01,3683.41L3059.39,3712.42L3070.94,3840.04L3065.16,3915.49L2878.12,3909.47L2850.2,3559.1L2775.08,3520.96L2705.44,3457.12L2635.83,3387.5L2560.39,3329.48L2510.38,3319.49L2548.8,3312.1L2624.2,3370.12L2688.04,3428.11L2763.47,3462.94L2809.89,3520.96L2847.16,3520.96L2850.2,3559.1L2871.56,3569.95L2884.61,3719.38L2864.68,3740.76L2891.09,3793.65L2884.61,3719.38L2891.09,3712.42L2949.11,3613.77L2877.88,3573.16L2871.56,3569.95L2867.28,3520.96L2949.13,3520.96L2960.76,2679.7L3041.96,2621.68L2771.05,2418.5L2744.36,2112.81L3088.39,2127.96L3105.76,1461.3L2686.96,1455.24L2672.44,1288.96L2775.08,1293.07L2757.67,869.537L2635.83,869.537L2630.05,1287.27L2669.25,1288.84L2682.51,1455.18L2305.13,1449.72L2310.93,2093.72L2734.89,2112.39L2758.54,2409.12L2484.98,2203.95L1864.17,2203.95L1347.81,2644.87L1400.02,2702.89L1405.85,2807.34L1411.31,3437.64L1347.81,3520.96L1347.81,3793.65L1383.2,3883.69M1556.69,3370.12L1483.38,3388.45L1498.65,3370.12L1556.69,3370.12" style="fill:none;stroke:black;stroke-width:1px;"/>
        </g>
    </g>
</svg>
